<?xml version="1.0" standalone="no"?>
<!DOCTYPE svg PUBLIC "-//W3C//DTD SVG 20010904//EN"
 "http://www.w3.org/TR/2001/REC-SVG-20010904/DTD/svg10.dtd">
<svg version="1.0" xmlns="http://www.w3.org/2000/svg"
 width="1280.000000pt" height="263.000000pt" viewBox="0 0 1280.000000 263.000000"
 preserveAspectRatio="xMidYMid meet">
<metadata>
Created by potrace 1.16, written by Peter Selinger 2001-2019
</metadata>
<g transform="translate(0.000000,263.000000) scale(0.100000,-0.100000)"
fill="#fff" stroke="none">
<path d="M8080 1963 c-115 -13 -250 -91 -308 -178 l-32 -48 0 96 0 97 -115 0
-115 0 0 -605 0 -605 115 0 115 0 1 28 c1 15 4 196 8 402 l6 375 33 67 c37 76
83 120 160 156 47 21 65 24 136 20 129 -7 195 -55 243 -178 15 -40 18 -94 21
-457 l3 -413 120 0 119 0 1 238 0 237 19 -73 c27 -104 75 -187 150 -262 119
-119 256 -171 450 -171 180 0 294 39 400 137 72 67 114 132 147 225 19 54 22
74 12 79 -18 12 -180 23 -189 13 -4 -4 -16 -30 -26 -58 -12 -32 -39 -70 -74
-106 -73 -75 -141 -101 -260 -102 -121 0 -185 26 -271 112 -69 70 -103 136
-116 227 l-6 44 477 0 476 0 0 103 c0 188 -53 330 -167 445 -68 68 -164 121
-261 141 -76 16 -237 14 -307 -4 -211 -54 -378 -227 -435 -449 l-18 -71 -6 70
c-21 229 -85 354 -216 420 -75 38 -197 58 -290 48z m1227 -199 c125 -43 206
-148 228 -297 l7 -47 -356 0 c-196 0 -356 1 -356 3 1 18 32 113 50 150 45 95
140 175 234 198 55 13 144 9 193 -7z"/>
<path d="M11165 1963 c-54 -7 -139 -34 -175 -55 -50 -30 -118 -96 -151 -146
l-28 -44 -25 49 c-33 65 -98 126 -171 160 -56 26 -69 28 -190 28 -121 0 -134
-2 -188 -27 -77 -36 -128 -78 -166 -135 l-31 -46 0 91 0 92 -120 0 -120 0 0
-605 0 -605 119 0 120 0 3 403 3 402 28 60 c55 117 150 185 261 185 117 0 185
-40 233 -138 l28 -57 3 -427 3 -428 119 0 119 0 3 398 c3 392 3 398 27 457 31
77 108 155 175 178 65 22 160 22 211 -2 55 -25 110 -89 131 -153 15 -46 18
-108 22 -466 l4 -412 114 0 115 0 -3 463 c-3 442 -5 464 -25 518 -50 134 -136
216 -258 247 -50 13 -150 21 -190 15z"/>
<path d="M6746 1944 c-155 -38 -303 -158 -375 -306 -58 -117 -75 -191 -75
-328 0 -197 48 -326 169 -447 119 -119 257 -173 445 -174 227 -1 383 73 489
232 45 67 91 194 75 208 -5 5 -49 12 -99 16 l-90 7 -23 -60 c-46 -119 -138
-190 -277 -213 -208 -33 -397 103 -444 319 -6 29 -11 55 -11 57 0 3 216 5 480
5 l480 0 0 85 c0 308 -156 534 -415 600 -74 19 -249 18 -329 -1z m299 -193
c101 -44 173 -148 193 -274 l9 -57 -355 0 -354 0 6 38 c18 97 102 223 183 273
87 54 222 63 318 20z"/>
<path d="M1320 1795 l0 -155 195 0 195 0 0 155 0 155 -195 0 -195 0 0 -155z"/>
<path d="M1830 1795 l0 -155 590 0 590 0 -6 28 c-23 91 -85 183 -155 227 -82
53 -109 55 -581 55 l-438 0 0 -155z"/>
<path d="M3140 1795 l0 -155 570 0 570 0 0 155 0 155 -570 0 -570 0 0 -155z"/>
<path d="M4370 1795 l0 -155 600 0 601 0 -7 38 c-18 103 -88 195 -184 241
l-55 26 -477 3 -478 3 0 -156z"/>
<path d="M1320 1120 l0 -410 195 0 195 0 -2 408 -3 407 -192 3 -193 2 0 -410z"/>
<path d="M1830 1120 l0 -410 205 0 205 0 0 410 0 410 -205 0 -205 0 0 -410z"/>
<path d="M2640 1120 l0 -410 190 0 190 0 0 410 0 410 -190 0 -190 0 0 -410z"/>
<path d="M3140 1120 l0 -410 570 0 570 0 0 175 0 175 -380 0 -380 0 0 60 0 60
375 0 375 0 0 175 0 175 -565 0 -565 0 0 -410z"/>
<path d="M4370 1115 l0 -405 205 0 205 0 0 234 0 234 253 4 252 3 67 32 c112
53 197 159 215 268 l6 35 -602 0 -601 0 0 -405z"/>
</g>
</svg>
